HIERARCHY
ROOT Hips
{
  OFFSET 0 0 0
  CHANNELS 6 Xposition Yposition Zposition Zrotation Yrotation Xrotation
  JOINT LeftThigh
  {
    OFFSET 8.409438 0 -5.917753
    CHANNELS 3 Zrotation Yrotation Xrotation
    JOINT LeftLeg
    {
      OFFSET 0 0 -42.358652
      CHANNELS 3 Zrotation Yrotation Xrotation
      JOINT LeftFoot
      {
        OFFSET 0 0 -39.357303
        CHANNELS 3 Zrotation Yrotation Xrotation
      }
    }
  }
  JOINT RightThigh
  {
    OFFSET -8.409438 0 -5.917753
    CHANNELS 3 Zrotation Yrotation Xrotation
    JOINT RightLeg
    {
      OFFSET 0 0 -42.358652
      CHANNELS 3 Zrotation Yrotation Xrotation
      JOINT RightFoot
      {
        OFFSET 0 0 -39.357303
        CHANNELS 3 Zrotation Yrotation Xrotation
      }
    }
  }
  JOINT SpineLow
  {
    OFFSET 0 0 4.719101
    CHANNELS 3 Zrotation Yrotation Xrotation
    JOINT SpineMid
    {
      OFFSET 0 0 12.899191
      CHANNELS 3 Zrotation Yrotation Xrotation
      JOINT Chest
      {
        OFFSET 0 0 12.899191
        CHANNELS 3 Zrotation Yrotation Xrotation
        JOINT LeftShoulder
        {
          OFFSET 7.550562 1.41573 9.438202
          CHANNELS 3 Zrotation Yrotation Xrotation
          JOINT LeftArm
          {
            OFFSET 9.155056 0 4.247191
            CHANNELS 3 Zrotation Yrotation Xrotation
            JOINT LeftForearm
            {
              OFFSET 0 0 25.771955
              CHANNELS 3 Zrotation Yrotation Xrotation
              JOINT LeftHand
              {
                OFFSET 0 0 25.197169
                CHANNELS 3 Zrotation Yrotation Xrotation
              }
            }
          }
        }
        JOINT RightShoulder
        {
          OFFSET -7.550562 1.41573 9.438202
          CHANNELS 3 Zrotation Yrotation Xrotation
          JOINT RightArm
          {
            OFFSET -9.155056 0 4.247191
            CHANNELS 3 Zrotation Yrotation Xrotation
            JOINT RightForearm
            {
              OFFSET 0 0 -25.771955
              CHANNELS 3 Zrotation Yrotation Xrotation
              JOINT RightHand
              {
                OFFSET 0 0 -25.197169
                CHANNELS 3 Zrotation Yrotation Xrotation
              }
            }
          }
        }
        JOINT Neck
        {
          OFFSET 0 0 15.101124
          CHANNELS 3 Zrotation Yrotation Xrotation
          JOINT Head
          {
            OFFSET 0 0 11.325843
            CHANNELS 3 Zrotation Yrotation Xrotation
            End Site
            {
              OFFSET 0 0 14.157303
            }
          }
        }
      }
    }
  }
}
MOTION
Frames: 10
Frame Time: 0.0
0.0  93.25843  0.0  -5.531889  -24.592187  -84.433744  38.633793  -25.585061  -30.706011  -7.934034  11.053898  10.653792  4.231533  0.640562  4.067118  -11.870292  13.882432  1.817931  -14.296432  1.929937  11.149206  -8.361722  -3.650325  -0.715559  0.471097  -0.929532  -1.164773  1.332726  -2.517297  -3.203193  1.332726  -2.517297  -3.203194  -17.26132  19.09987  -0.288661  -146.012879  65.447085  -90.335806  -30.081971  -4.114308  79.722238  36.805167  -15.053018  15.336264  1.103341  -12.214993  21.354345  112.506939  25.602711  37.707522  -8.615367  -12.126655  -114.748933  70.898632  26.021375  11.961919  20.865344  0.740497  7.266929  15.642657  0.804903  5.432359  
0.0  93.25843  0.0  -5.486606  -24.366866  -84.513255  38.448532  -25.665021  -30.813077  -7.555636  11.373022  10.899007  4.038619  0.893805  3.818651  -11.387712  13.92144  2.531985  -15.051339  1.571686  10.328586  -8.337088  -3.464035  -0.731348  0.461113  -0.988097  -1.156027  1.307981  -2.677991  -3.180205  1.307981  -2.677991  -3.180205  -17.439375  19.674056  -0.36632  -145.625441  65.639612  -89.583197  -30.609645  -3.885763  79.478249  36.808571  -14.947391  15.468437  0.044513  -11.946387  20.737211  113.333036  25.512023  37.411641  -8.393223  -12.547686  -114.470088  71.305044  25.962916  12.362651  20.64592  0.836681  7.490367  15.476721  0.882083  5.596996  
0.0  93.25843  0.0  -5.459104  -23.681575  -84.402288  38.13305  -25.632667  -31.032321  -7.327774  11.728596  11.069029  4.132666  0.891693  3.705356  -11.239763  13.955158  3.117361  -15.632472  1.307266  9.563811  -8.723774  -3.452164  -0.667314  0.411707  -1.038937  -1.204271  1.177448  -2.818414  -3.311192  1.177448  -2.818414  -3.311193  -17.844307  20.179812  -0.290288  -145.226776  65.905033  -88.76142  -30.937937  -4.174002  79.168526  36.866769  -14.996659  15.507908  0.10685  -11.754262  20.910667  113.119553  26.467143  37.035339  -8.406877  -12.864047  -114.064764  71.310876  25.991275  12.653996  20.373896  0.967764  7.759346  15.270747  0.986164  5.794755  
0.0  93.25843  0.0  -5.098306  -23.90761  -84.561678  38.10254  -25.497609  -31.183403  -6.521303  12.164413  11.759877  4.152409  0.957494  3.503879  -10.490278  14.434233  3.698895  -16.489115  0.944718  8.839728  -8.990082  -3.458894  -0.611916  0.500922  -1.018014  -1.249188  1.422159  -2.755763  -3.437295  1.422159  -2.755763  -3.437295  -17.766873  20.555415  0.196962  -144.921162  66.2204  -87.832774  -31.094845  -4.704519  79.000138  37.025004  -15.181929  15.390048  0.080272  -11.701441  21.06084  113.173963  27.234842  36.556348  -8.690223  -13.071737  -113.565586  71.130742  25.946856  12.906461  20.114339  0.972021  8.052193  15.075749  0.995696  6.014747  
0.0  93.25843  0.0  -4.964901  -23.124132  -84.504563  37.752023  -25.259948  -31.36428  -6.149318  12.509756  12.005857  4.403284  1.043308  3.431557  -10.839959  14.685451  4.178994  -16.745736  0.641456  8.223004  -9.202208  -3.472937  -0.507968  0.471172  -1.005636  -1.27336  1.341152  -2.722989  -3.50188  1.341152  -2.722989  -3.50188  -18.101623  20.553776  0.301435  -144.82327  66.459501  -87.107334  -31.056516  -5.569124  78.746669  37.226508  -15.391554  15.149353  0.312496  -11.852587  20.908931  113.070294  28.178678  36.012442  -9.072756  -13.313861  -113.029352  71.242733  25.806586  13.172691  19.753921  1.023367  8.106729  14.804619  1.031219  6.054319  
0.0  93.25843  0.0  -4.50636  -23.403648  -84.809713  38.270213  -24.837266  -31.11921  -5.689012  12.946956  12.410142  4.637724  1.225236  3.415442  -10.315557  15.418626  4.759301  -18.790304  -0.402314  7.835188  -7.935348  -2.773485  -0.637764  0.616557  -0.926402  -1.261746  1.733873  -2.499069  -3.473752  1.733873  -2.499069  -3.473752  -18.287515  20.466668  0.491299  -144.37981  66.880619  -86.679729  -31.217342  -5.862123  78.932911  37.27354  -15.638524  14.900989  -0.669411  -12.121733  20.109956  114.165863  28.133521  35.455541  -9.601088  -13.50512  -112.451305  71.580709  25.551532  13.345484  19.353544  0.975936  8.142063  14.504912  0.991341  6.08274  
0.0  93.25843  0.0  -4.35628  -22.62738  -84.795704  38.108426  -24.497997  -31.248128  -5.130406  13.437518  12.847054  4.838013  1.250025  3.338281  -10.804314  15.801023  5.149656  -18.647124  -0.792635  7.456551  -8.107432  -2.732065  -0.525975  0.647116  -0.883836  -1.280776  1.815796  -2.380619  -3.525649  1.815796  -2.380619  -3.52565  -18.839381  20.330968  0.567236  -144.199252  67.095827  -85.928809  -31.345411  -6.350701  78.585315  37.246361  -15.758626  14.684649  -0.51626  -12.365379  19.912528  114.132019  29.238479  34.777117  -10.391968  -13.516037  -111.795275  71.918101  25.212738  13.474098  18.799731  0.943144  8.092739  14.08997  0.957725  6.047202  
0.0  93.25843  0.0  -3.968704  -23.100896  -85.146583  39.030296  -24.060877  -30.913648  -3.949836  13.83776  13.677277  4.794889  1.331555  3.251304  -9.937795  16.551361  5.701638  -20.370536  -1.782589  7.395567  -6.994537  -2.044463  -0.564814  0.804661  -0.831193  -1.266169  2.243074  -2.228843  -3.489388  2.243074  -2.228843  -3.489388  -18.809287  20.374452  0.694956  -143.402945  67.42434  -85.472468  -31.557556  -6.179841  78.373173  36.722836  -16.184438  14.662065  -0.908839  -12.562596  19.211283  115.133709  29.490437  34.1281  -11.36974  -13.453687  -111.104155  72.168668  24.844313  13.619542  18.501691  0.92127  8.121985  13.866677  0.938195  6.070075  
0.0  93.25843  0.0  -3.84705  -22.320021  -85.111741  39.042288  -23.690344  -31.017241  -2.692018  14.273539  14.470624  4.926632  1.291349  3.179473  -10.253245  16.871534  6.017914  -20.311972  -2.057454  7.277522  -7.300706  -1.92664  -0.445692  0.865239  -0.795084  -1.289227  2.407425  -2.126125  -3.553038  2.407425  -2.126125  -3.553038  -19.399833  20.231266  0.555452  -143.499857  67.585175  -85.004752  -31.91843  -6.114968  77.846643  36.687853  -16.109581  14.508406  -0.600136  -12.949358  18.948049  115.160368  30.746994  33.588492  -12.3577  -13.484999  -110.439417  72.332129  24.495887  13.718867  17.886287  0.88398  8.022945  13.405626  0.899017  5.997321  
0.0  93.25843  0.0  -3.551651  -22.783873  -85.456984  40.116981  -23.325852  -30.688989  -0.969831  14.564848  15.537228  4.968493  1.296789  3.082618  -9.335028  17.427911  6.589577  -21.278982  -2.538891  7.30764  -6.737849  -1.398409  -0.43192  1.092062  -0.745158  -1.27453  3.024195  -1.978136  -3.517606  3.024194  -1.978136  -3.517605  -19.707545  20.193285  0.466401  -143.170222  67.931151  -84.955027  -32.417897  -5.474595  77.814644  36.563362  -16.069849  14.407944  -0.794204  -13.501824  18.230985  115.950603  31.21045  33.127929  -13.336578  -13.688784  -109.755158  72.403839  24.157063  13.700371  17.387929  0.832431  7.996992  13.032508  0.85296  5.979705  
